<svg width="28" height="28" viewBox="0 0 28 28" fill="none" xmlns="http://www.w3.org/2000/svg">
<rect x="1" y="1" width="26" height="26" rx="13" fill="white"/>
<rect x="1" y="1" width="26" height="26" rx="13" stroke="black" stroke-width="2"/>
<path d="M14.834 8.67C15.494 8.67 16.034 8.77 16.454 8.97C16.884 9.16 17.264 9.385 17.594 9.645C17.794 9.795 17.944 9.815 18.044 9.705C18.154 9.585 18.229 9.31 18.269 8.88H18.614C18.594 9.28 18.579 9.77 18.569 10.35C18.559 10.92 18.554 11.68 18.554 12.63H18.209C18.169 12.15 18.104 11.725 18.014 11.355C17.924 10.975 17.789 10.64 17.609 10.35C17.429 10.06 17.169 9.805 16.829 9.585C16.619 9.445 16.394 9.335 16.154 9.255C15.924 9.175 15.684 9.135 15.434 9.135C14.864 9.135 14.394 9.295 14.024 9.615C13.654 9.925 13.364 10.335 13.154 10.845C12.954 11.345 12.814 11.895 12.734 12.495C12.654 13.085 12.614 13.66 12.614 14.22C12.614 14.78 12.654 15.36 12.734 15.96C12.814 16.55 12.954 17.1 13.154 17.61C13.364 18.11 13.654 18.52 14.024 18.84C14.394 19.15 14.864 19.305 15.434 19.305C15.684 19.305 15.924 19.265 16.154 19.185C16.394 19.095 16.619 18.985 16.829 18.855C17.329 18.545 17.664 18.13 17.834 17.61C18.014 17.09 18.139 16.42 18.209 15.6H18.554C18.554 16.58 18.559 17.375 18.569 17.985C18.579 18.585 18.594 19.09 18.614 19.5H18.269C18.229 19.07 18.159 18.8 18.059 18.69C17.969 18.58 17.814 18.595 17.594 18.735C17.224 18.995 16.829 19.225 16.409 19.425C15.999 19.615 15.469 19.71 14.819 19.71C13.689 19.71 12.699 19.495 11.849 19.065C10.999 18.635 10.339 18.015 9.869 17.205C9.399 16.395 9.164 15.42 9.164 14.28C9.164 13.16 9.404 12.18 9.884 11.34C10.374 10.5 11.044 9.845 11.894 9.375C12.744 8.905 13.724 8.67 14.834 8.67Z" fill="black"/>
</svg>
